<?xml version="1.0" encoding="utf-8"?>
<!-- Generator: Adobe Illustrator 24.3.0, SVG Export Plug-In . SVG Version: 6.00 Build 0)  -->
<svg version="1.1" id="Ebene_1" xmlns="http://www.w3.org/2000/svg" xmlns:xlink="http://www.w3.org/1999/xlink" x="0px" y="0px"
	 viewBox="0 0 1006 348" style="enable-background:new 0 0 1006 348;" xml:space="preserve">
<style type="text/css">
	.st0{fill:#FFFFFF;}
</style>
<g>
	<path class="st0" d="M42.6,30.7v32.5h56.8V86H42.6v44.7H14.1V7.9H107v22.8H42.6z"/>
	<path class="st0" d="M126.3,7.9h28.4v99.7h61.6v23.2h-90V7.9z"/>
	<path class="st0" d="M222.4,69.3c0-36.5,28.4-63.5,67.2-63.5c38.6,0,67.2,26.8,67.2,63.5c0,36.7-28.6,63.5-67.2,63.5
		C250.8,132.8,222.4,105.8,222.4,69.3z M328,69.3C328,46,311.5,30,289.6,30s-38.4,16-38.4,39.3c0,23.3,16.5,39.3,38.4,39.3
		S328,92.6,328,69.3z"/>
	<path class="st0" d="M456.5,130.7l-23.7-34.2h-1.4h-24.7v34.2h-28.4V7.9h53.2c32.8,0,53.3,17,53.3,44.6c0,18.4-9.3,31.9-25.3,38.8
		l27.5,39.5H456.5z M429.8,31h-23.2v42.8h23.2c17.4,0,26.1-8.1,26.1-21.4C455.9,38.9,447.2,31,429.8,31z"/>
	<path class="st0" d="M507.2,7.9h28.4v122.8h-28.4V7.9z"/>
	<path class="st0" d="M645.6,104.4h-57l-10.9,26.3h-29.1L603.3,7.9h28.1l54.9,122.8h-29.8L645.6,104.4z M636.6,82.8l-19.5-47
		l-19.5,47H636.6z"/>
	<path class="st0" d="M811.7,7.9v122.8h-23.3l-61.2-74.6v74.6h-28.1V7.9h23.5l61.1,74.6V7.9H811.7z"/>
	<path class="st0" d="M199.8,218.4l-40.2,122.8h-30.5l-27-83.2l-27.9,83.2H43.8L3.4,218.4h29.5l27.7,86.3l28.9-86.3h26.3l28.1,87
		l28.6-87H199.8z"/>
	<path class="st0" d="M310.7,318.4v22.8h-95.1V218.4h92.8v22.8h-64.6v26.7h57V290h-57v28.4H310.7z"/>
	<path class="st0" d="M333.3,218.4h28.4v122.8h-28.4V218.4z"/>
	<path class="st0" d="M383.1,279.8c0-37,28.4-63.5,66.7-63.5c21.2,0,38.9,7.7,50.5,21.8l-18.2,16.8c-8.2-9.5-18.6-14.4-30.9-14.4
		c-23,0-39.3,16.1-39.3,39.3c0,23.2,16.3,39.3,39.3,39.3c12.3,0,22.6-4.9,30.9-14.6l18.2,16.8c-11.6,14.2-29.3,21.9-50.7,21.9
		C411.5,343.4,383.1,316.9,383.1,279.8z"/>
	<path class="st0" d="M632.1,218.4v122.8h-28.4v-50.4h-55.8v50.4h-28.4V218.4h28.4v48.4h55.8v-48.4H632.1z"/>
	<path class="st0" d="M756.3,318.4v22.8h-95.1V218.4H754v22.8h-64.6v26.7h57V290h-57v28.4H756.3z"/>
	<path class="st0" d="M857.2,341.2L833.5,307h-1.4h-24.7v34.2h-28.4V218.4h53.2c32.8,0,53.3,17,53.3,44.6c0,18.4-9.3,31.9-25.3,38.8
		l27.5,39.5H857.2z M830.5,241.6h-23.2v42.8h23.2c17.4,0,26.1-8.1,26.1-21.4C856.7,249.5,847.9,241.6,830.5,241.6z"/>
	<path class="st0" d="M931.6,241.6h-39.3v-23.2h107v23.2H960v99.7h-28.4V241.6z"/>
</g>
</svg>
