<?xml version="1.0" encoding="utf-8"?>
<!-- Generator: Adobe Illustrator 23.0.6, SVG Export Plug-In . SVG Version: 6.00 Build 0)  -->
<svg version="1.1" id="Ebene_1" xmlns="http://www.w3.org/2000/svg" xmlns:xlink="http://www.w3.org/1999/xlink" x="0px" y="0px"
	 viewBox="0 0 2000 1115" style="enable-background:new 0 0 2000 1115;" xml:space="preserve">
<style type="text/css">
	.st0{fill:#C73226;}
	.st1{fill:#C73225;}
	.st2{fill:#0C111E;}
</style>
<polygon class="st0" points="1796.38,1115.4 2000,429.09 2000,1115.54 "/>
<path class="st0" d="M1554.43,1115.4"/>
<path class="st1" d="M418.6,491.13h-162V211.38l313.55,2.56L534.07-0.39H81.65C36.42-0.39-0.24,36.27-0.24,81.5V1115.4H256.6V702.9
	h223.37L418.6,491.13z"/>
<path class="st2" d="M1943.86-0.39h-117.37h-55.7c-17.93,0-33.47,4.92-46.63,14.72s-21.72,21.14-25.62,34.01l-164.06,642.85
	L1340.02,48.34c-5.05-15.11-13.59-27.01-25.62-35.7c-12.05-8.67-27.88-13.03-47.47-13.03h-55.7h-9h-55.7
	c-17.93,0-33.32,4.92-46.2,14.72c-12.9,9.8-21.57,21.14-26.06,34.01L879.33,691.95c-0.17,0.45-0.26,1.02-0.43,1.47
	c-0.06-0.2-0.11-0.45-0.17-0.65L714.08,48.34c-4.51-14.55-13.03-26.32-25.64-35.27c-12.59-8.95-28.7-13.46-48.3-13.46h-55.7H455.29
	h-55.7L730.63,1115.4h55.7h143.43h55.7l215.71-710.73l211.7,710.73h55.7h144.25h55.7L1999.56-0.39H1943.86z"/>
</svg>
