<?xml version="1.0" encoding="utf-8"?>
<!-- Generator: Adobe Illustrator 23.1.0, SVG Export Plug-In . SVG Version: 6.00 Build 0)  -->
<svg version="1.1" id="Ebene_1" xmlns="http://www.w3.org/2000/svg" xmlns:xlink="http://www.w3.org/1999/xlink" x="0px" y="0px"
	 viewBox="0 0 2000 2000" style="enable-background:new 0 0 2000 2000;" xml:space="preserve">
<style type="text/css">
	.st0{fill:#9DA600;}
	.st1{fill:#FF8C00;}
	.st2{fill:#8E8E09;}
</style>
<g>
	<path class="st0" d="M562.4,1307.8l-97.1,180.8h-20.1l-22.2-153.5l-84.2,153.5h-20.1l-24.8-180.8h18.9l21.4,155.8l85-155.8h17.8
		l22,156l84.5-156H562.4z"/>
	<path class="st0" d="M564,1425.9c-0.2,1.2-0.3,3-0.3,5.4c0,13.8,3.9,24.3,11.8,31.5s19.5,10.8,35,10.8c9,0,17.3-1.5,25.2-4.5
		s14.3-7.2,19.3-12.5l8.3,13.2c-6.4,6.4-14.3,11.3-23.9,14.9s-19.7,5.3-30.4,5.3c-19.6,0-35.1-5.2-46.4-15.5
		c-11.3-10.3-16.9-24.4-16.9-42.4c0-15.2,3.2-28.8,9.7-41.1s15.4-21.8,26.9-28.8c11.5-7,24.3-10.5,38.6-10.5
		c18.1,0,32.5,5.1,43.1,15.4c10.7,10.3,16,24.3,16,42.2c0,5-0.6,10.5-1.8,16.5L564,1425.9L564,1425.9z M585.4,1379.4
		c-9.7,8.1-16.2,19-19.6,32.8h96.9c0.2-1.2,0.3-2.8,0.3-4.9c0-12.7-3.9-22.6-11.6-29.6s-18.1-10.5-31-10.5
		C606.7,1367.3,595.1,1371.3,585.4,1379.4z"/>
	<path class="st0" d="M826.8,1358.7c9,4.7,16.1,11.3,21.1,19.9c5,8.6,7.5,18.8,7.5,30.5c0,15.3-3.3,29.2-10,41.5
		c-6.6,12.3-15.8,22-27.5,28.9c-11.7,7-24.9,10.5-39.5,10.5c-13.1,0-24.1-2.7-32.9-8s-15.2-13-19-23l-5.9,29.7H703l38.2-191.7h18.3
		l-15.2,76.2c6.5-6.9,14.2-12.2,22.9-15.9c8.7-3.7,18.3-5.6,28.8-5.6C807.5,1351.8,817.8,1354.1,826.8,1358.7z M808.2,1465.6
		c8.9-5.4,15.8-13,20.9-22.6c5.1-9.6,7.6-20.6,7.6-32.8c0-13.3-3.9-23.6-11.8-31.1c-7.8-7.5-18.8-11.2-32.9-11.2
		c-11.2,0-21.2,2.7-30.1,8.1c-8.9,5.4-15.8,13-20.9,22.7c-5.1,9.7-7.6,20.7-7.6,32.9c0,13.3,3.9,23.6,11.8,31
		c7.8,7.4,18.8,11.1,32.9,11.1C789.3,1473.7,799.4,1471,808.2,1465.6z"/>
	<path class="st1" d="M905,1352.8h18.3l-26.9,135.9h-18.3L905,1352.8z M913.1,1319.5c-2.3-2.4-3.5-5.3-3.5-8.5c0-4,1.3-7.3,4-9.9
		c2.7-2.7,6.1-4,10.2-4c3.6,0,6.6,1.2,9,3.5c2.4,2.3,3.6,5,3.6,8.1c0,4.1-1.4,7.6-4.1,10.3c-2.8,2.8-6.2,4.1-10.3,4.1
		C918.4,1323.1,915.5,1321.9,913.1,1319.5z"/>
	<path class="st1" d="M1176.4,1363.3c8.3,7.7,12.5,18.4,12.5,32.2c0,4-0.6,9.3-1.8,16l-15.5,77.3h-18.3l15.5-77.5
		c0.9-4,1.3-8.2,1.3-12.7c0-9.6-2.8-17.1-8.5-22.3c-5.7-5.3-14-7.9-25.1-7.9c-13.8,0-25.2,3.8-34.4,11.5s-15.2,19-18.3,34l-15,74.9
		h-18.3l15.5-77.5c0.9-4.8,1.3-8.9,1.3-12.4c0-9.8-2.8-17.3-8.4-22.6c-5.6-5.3-14-7.9-25.2-7.9c-14,0-25.5,4-34.6,12
		s-15.3,19.8-18.6,35.5l-14.5,72.8h-18.3l26.9-135.9h17.6l-4.4,21.7c12.4-15.2,29.5-22.7,51.4-22.7c11.4,0,20.9,2.3,28.6,7
		c7.7,4.7,13,11.4,15.9,20.2c6.7-8.9,14.9-15.7,24.7-20.3c9.7-4.6,20.6-6.8,32.7-6.8C1156.2,1351.8,1168,1355.6,1176.4,1363.3z"/>
	<path class="st1" d="M1373.4,1352.8l-27.1,135.9h-17.6l4.4-21.4c-6.6,7.2-14.3,12.8-23.3,16.8c-9,4-18.9,5.9-29.7,5.9
		c-11.5,0-21.8-2.3-30.7-7c-9-4.7-15.9-11.3-20.9-20c-5-8.7-7.5-18.9-7.5-30.6c0-15.3,3.3-29.1,9.9-41.3
		c6.6-12.2,15.8-21.8,27.5-28.8c11.7-7,24.8-10.5,39.3-10.5c12.9,0,23.8,2.5,32.6,7.6s15.2,12.4,19.1,21.8l5.7-28.4H1373.4z
		 M1314.2,1465.6c8.9-5.4,16-13,21.1-22.7c5.1-9.7,7.6-20.6,7.6-32.7c0-13.3-3.9-23.6-11.8-31.1c-7.8-7.5-18.8-11.2-32.9-11.2
		c-11.2,0-21.3,2.8-30.2,8.3s-16,13.1-21.1,22.9c-5.1,9.7-7.6,20.6-7.6,32.7c0,13.3,3.9,23.6,11.8,31c7.8,7.4,18.8,11.1,32.9,11.1
		C1295.2,1473.7,1305.3,1471,1314.2,1465.6z"/>
	<path class="st1" d="M1550.3,1352.8l-23.8,119.4c-4.7,23.8-13.4,41-26.2,51.8c-12.8,10.8-30.4,16.2-52.8,16.2
		c-12.8,0-24.2-1.8-34.5-5.3s-18.9-8.6-26-15.1l10.8-13.9c5.5,5.7,12.7,10.1,21.6,13.3c8.9,3.2,18.6,4.8,29.3,4.8
		c17.1,0,30.3-4,39.8-11.9c9.5-7.9,15.8-20.2,19.1-36.7l3.1-15c-6.6,7.4-14.4,13.1-23.6,17.2c-9.2,4.1-19.4,6.1-30.6,6.1
		c-18.1,0-32.6-4.9-43.5-14.7c-10.9-9.8-16.4-23.2-16.4-40c0-14.5,3.3-27.6,9.9-39.3c6.6-11.7,15.8-20.9,27.6-27.6
		c11.8-6.7,25.1-10.1,39.9-10.1c12.9,0,24,2.6,33.3,7.9c9.3,5.3,15.8,13,19.6,23.1l5.7-30L1550.3,1352.8L1550.3,1352.8z
		 M1490.5,1459.5c9-5.2,16.1-12.3,21.2-21.4c5.1-9.1,7.6-19.4,7.6-30.7c0-12.4-4-22.1-11.9-29.1c-7.9-7-18.9-10.5-33.1-10.5
		c-11.4,0-21.5,2.6-30.5,7.8s-16,12.3-21.1,21.4c-5.1,9.1-7.6,19.4-7.6,30.7c0,12.4,4,22.1,11.9,29.1c7.9,7,18.9,10.5,33.1,10.5
		C1471.4,1467.2,1481.5,1464.7,1490.5,1459.5z"/>
	<path class="st1" d="M1591.7,1425.9c-0.2,1.2-0.3,3-0.3,5.4c0,13.8,3.9,24.3,11.8,31.5c7.8,7.2,19.5,10.8,35,10.8
		c8.9,0,17.3-1.5,25.2-4.5c7.8-3,14.3-7.2,19.3-12.5l8.3,13.2c-6.4,6.4-14.3,11.3-23.9,14.9s-19.7,5.3-30.4,5.3
		c-19.6,0-35.1-5.2-46.4-15.5s-16.9-24.4-16.9-42.4c0-15.2,3.2-28.8,9.7-41.1s15.4-21.8,26.9-28.8c11.4-7,24.3-10.5,38.6-10.5
		c18.1,0,32.5,5.1,43.1,15.4c10.7,10.3,16,24.3,16,42.2c0,5-0.6,10.5-1.8,16.5L1591.7,1425.9L1591.7,1425.9z M1613.1,1379.4
		c-9.7,8.1-16.2,19-19.6,32.8h96.9c0.2-1.2,0.3-2.8,0.3-4.9c0-12.7-3.9-22.6-11.6-29.6s-18.1-10.5-31-10.5
		C1634.4,1367.3,1622.8,1371.3,1613.1,1379.4z"/>
</g>
<polygon class="st0" points="1322.3,520.6 1208.9,874.8 1114.7,563.4 897.1,563.4 797.6,870.4 690.4,520.6 476.9,520.6 
	673.7,1135.8 896.1,1135.8 1000.7,807.1 1100,1135.8 1322.3,1135.8 1519.2,520.6 1519.2,520.6 "/>
<polyline class="st2" points="1099.9,1135.8 1272.3,1135.8 1469.2,520.6 1322.3,520.6 1208.9,874.8 1179.5,777.4 1102.4,1135.9 "/>
<g>
	<path class="st1" d="M1322.3,520.6h196.9l-196.9,615.2h-222.3L1322.3,520.6z"/>
</g>
</svg>
